# xmcd
#
# Track frame offsets: 
#        150
#        25677
#        39735
#        55413
#        72811
#        89931
#        105880
#        130889
#        146716
#        164818
#        177730
#        207319
#        226532
#        249757
#        264080
#
# Disc length: 3909 seconds
#
# Revision: 0
# Processed by: cddbd v1.5.2PL0 Copyright (c) Steve Scherf et al.
# Submitted via: ExactAudioCopy v0.99pb5
#
DISCID=d10f430f
DTITLE=Poemu - Poubelle Blues
DYEAR=2009
DGENRE=French
TTITLE0=De marché en marché
TTITLE1=Drôle d'histoire
TTITLE2=Vive coluche
TTITLE3=La Drôme
TTITLE4=Boire
TTITLE5=Les meilleurs ermites sont vieux
TTITLE6=Poubelle blues
TTITLE7=Je marche à pied
TTITLE8=Mémé lub (la grand mère du Lubéron)
TTITLE9=Edouardo
TTITLE10=La tartine
TTITLE11=Le pays des lumières
TTITLE12=On va droit dans le mur
TTITLE13=Les imbéciles heureux
TTITLE14=le conte: Merlin l'inventeur
EXTD=
EXTT0=
EXTT1=
EXTT2=
EXTT3=
EXTT4=
EXTT5=
EXTT6=
EXTT7=
EXTT8=
EXTT9=
EXTT10=
EXTT11=
EXTT12=
EXTT13=
EXTT14=
PLAYORDER=
